<?xml version="1.0" encoding="utf-8"?>
<!-- Generator: Adobe Illustrator 16.0.0, SVG Export Plug-In . SVG Version: 6.00 Build 0)  -->
<!DOCTYPE svg PUBLIC "-//W3C//DTD SVG 1.1//EN" "http://www.w3.org/Graphics/SVG/1.1/DTD/svg11.dtd">
<svg version="1.1" id="Layer_1" xmlns="http://www.w3.org/2000/svg" xmlns:xlink="http://www.w3.org/1999/xlink" x="0px" y="0px"
	 width="400px" height="300px" viewBox="0 0 400 300" style="enable-background:new 0 0 400 300;" xml:space="preserve">
<style type="text/css">
<![CDATA[
	.st0{fill:#ECA400;}
	.st1{fill-rule:evenodd;clip-rule:evenodd;fill:#ECA400;}
	.st2{fill:#FBCB22;}
	.st3{fill:#FEEDB4;}
	.st4{fill-rule:evenodd;clip-rule:evenodd;fill:#FBCB22;}
	.st5{fill-rule:evenodd;clip-rule:evenodd;fill:#FEEDB4;}
]]>
</style>
<g transform="matrix(1,0,0,1,-7.01038,-5.52873)">
	<g>
		<path class="st4" d="M122.9,295.9c0.5-15,48.6-18.2,84.7-42.4c36.3,27.3,84.2,27.4,84.7,42.4h0v9.1H122.9L122.9,295.9L122.9,295.9
			z"/>
		<g transform="matrix(0.798699,0,0,1,81.6679,203.879)">
			<path class="st0" d="M247.8,93.6H67.5c-0.8,0-1.5-0.5-1.5-1.2s0.7-1.2,1.5-1.2h180.3c0.8,0,1.5,0.5,1.5,1.2
				S248.6,93.6,247.8,93.6z"/>
		</g>
	</g>
	<g transform="matrix(1,0,0,1,-3.97313,14.3208)">
		<path class="st1" d="M189.7,192.6c0,0,4.8,7.3,8.9,20.1c1.3,4.2,2.7,8.6,2.6,13.4c0,4.8-1.5,9.2-2.9,13.4
			c-4,12.7-8.6,20.1-8.6,20.1c0,12.1,43.7,12.1,43.7,0c0,0-4.6-7.4-8.6-20.1c-1.3-4.2-2.8-8.6-2.9-13.4c0-4.8,1.3-9.2,2.6-13.4
			c4-12.8,8.9-20.1,8.9-20.1c0-12.1-9.8-21.9-21.9-21.9C199.5,170.7,189.7,180.5,189.7,192.6z"/>
	</g>
	<g>
		<g transform="matrix(0.904031,0,0,0.904031,30.2333,20.7502)">
			<path class="st1" d="M102,104c-54.5-3.8-77.9-20.1-88.4-43.7C3.1,36.6,2.7,2.3,10,2.1c4.2,0.1,11.3,0.3,14.9,0
				c8.5,0,1.5,6.3,13.8,26.9c17.9,30.1,53.1,33.7,53.1,33.7V36.8c0,0-30.4,5.8-43.5-18.6s-5-34.7-13.5-34.5C22.9-16,4.3-16-5.3-16.2
				c-11.1-0.2-6.9,48.3,3.6,77.1C8.7,89.6,47.6,126.5,102,131.2C102.2,126.2,102,109.5,102,104z"/>
		</g>
		<g transform="matrix(-0.904031,0,0,0.904031,783.787,20.7502)">
			<path class="st1" d="M544.5,104c-54.5-3.8-77.9-20.1-88.4-43.7c-10.5-23.7-11-58-3.6-58.2c4.2,0.1,11.3,0.3,14.9,0
				c8.5,0,1.6,6.3,13.8,26.9c17.9,30.1,53.1,33.7,53.1,33.7V36.8c0,0-30.4,5.8-43.5-18.6c-13.1-24.4-5-34.7-13.5-34.5
				c-11.9,0.3-30.4,0.2-40.1,0c-11.1-0.2-6.9,48.3,3.6,77.1c10.5,28.8,49.3,65.7,103.8,70.3C544.6,126.2,544.5,109.5,544.5,104z"/>
		</g>
	</g>
	<g transform="matrix(1,0,0,1,-0.404821,14.3208)">
		<path class="st4" d="M98.1,42.8V13.6c0-5.8,2.3-11.4,6.4-15.5c4.1-4.1,9.7-6.4,15.5-6.4c41.9,0,133,0,174.9,0
			c5.8,0,11.4,2.3,15.5,6.4c4.1,4.1,6.4,9.7,6.4,15.5c0,14.1,0,29.7,0,29.7c-0.2,88.7-49.1,160.6-109.3,160.6
			C147.1,203.9,98.1,131.7,98.1,42.8z"/>
	</g>
	<g>
		<g transform="matrix(1.0673,0,0,0.796767,-27.3914,25.3546)">
			<path class="st5" d="M328.9-9.1c0-8.3-5-15.1-11.3-15.1c-37.6,0-158.5,0-196.1,0c-6.2,0-11.3,6.8-11.3,15.1c0,0,0,0,0,0
				c0,8.3,5,15.1,11.3,15.1c37.6,0,158.5,0,196.1,0C323.9,6,328.9-0.8,328.9-9.1C328.9-9.1,328.9-9.1,328.9-9.1z"/>
		</g>
		<g transform="matrix(1.08591,0,0,1,-35.4685,13.0164)">
			<path class="st2" d="M314,7.2H133.7c-1.1,0-1.9-0.9-1.9-2.1s0.9-2.1,1.9-2.1H314c1.1,0,1.9,0.9,1.9,2.1S315,7.2,314,7.2z"/>
		</g>
	</g>
	<g>
		<g transform="matrix(0.908634,0,0,0.908634,37.1867,17.0308)">
			<circle class="st5" cx="186.9" cy="104.7" r="61.5"/>
		</g>
		<g transform="matrix(1.03609,0,0,1.03609,-14.6889,-8.2892)">
			<path class="st0" d="M214,179.1c-34.7,0-62.9-28.2-62.9-62.9c0-34.7,28.2-62.9,62.9-62.9s62.9,28.2,62.9,62.9
				C276.9,150.9,248.7,179.1,214,179.1z M214,56.2c-33.1,0-60.1,26.9-60.1,60.1s26.9,60.1,60.1,60.1c33.1,0,60.1-26.9,60.1-60.1
				S247.1,56.2,214,56.2z"/>
		</g>
		<g transform="matrix(1,0,0,1,1.34564,12.0422)">
			<path class="st2" d="M214,122.1h9.1c2.5,0,4.3,0.6,5.6,1.7c1.3,1.1,1.9,2.6,1.9,4.5c0,4-2.8,6.1-8.5,6.3v0h-28.7v0
				c-5.7-0.2-8.5-2.3-8.5-6.3c0-1.9,0.6-3.4,1.9-4.5s3.1-1.7,5.6-1.7h9.3V85.3c-7.8,6-13,9-15.7,9c-1.3,0-2.4-0.5-3.4-1.5
				c-1-1-1.5-2.2-1.5-3.6c0-1.6,0.5-2.7,1.5-3.4s2.7-1.7,5.2-2.9c3.7-1.7,6.7-3.6,8.9-5.5s4.2-4.1,5.9-6.5c1.7-2.4,2.8-3.9,3.4-4.4
				c0.5-0.6,1.5-0.8,2.9-0.8c1.6,0,2.9,0.6,3.9,1.9c1,1.3,1.5,3,1.5,5.2V122.1z"/>
		</g>
	</g>
	<g>
		<path class="st3" d="M131.5,140.1c-1.7,0-3.3-1-4-2.7c-19.1-44.9-17.1-87.4-17-89.2c0.1-2.4,2.2-4.3,4.6-4.1
			c2.4,0.1,4.3,2.2,4.1,4.6c0,0.5-1.9,42.4,16.3,85.3c0.9,2.2-0.1,4.8-2.3,5.7C132.7,140,132.1,140.1,131.5,140.1z"/>
		<path class="st3" d="M151.2,174.6c-1.3,0-2.7-0.6-3.5-1.8c-4.6-6.1-8.8-12.8-12.6-19.7c-1.2-2.1-0.4-4.8,1.8-5.9
			c2.1-1.2,4.8-0.4,5.9,1.8c3.6,6.6,7.6,12.9,11.9,18.7c1.4,1.9,1,4.7-0.9,6.1C153,174.4,152.1,174.6,151.2,174.6z"/>
	</g>
</g>
</svg>
