<?xml version="1.0" encoding="utf-8"?>
<!-- Generator: Adobe Illustrator 16.0.0, SVG Export Plug-In . SVG Version: 6.00 Build 0)  -->
<!DOCTYPE svg PUBLIC "-//W3C//DTD SVG 1.1//EN" "http://www.w3.org/Graphics/SVG/1.1/DTD/svg11.dtd">
<svg version="1.1" id="Layer_1" xmlns="http://www.w3.org/2000/svg" xmlns:xlink="http://www.w3.org/1999/xlink" x="0px" y="0px"
	 width="319.5px" height="300px" viewBox="0 0 319.5 300" style="enable-background:new 0 0 319.5 300;" xml:space="preserve">
<style type="text/css">
<![CDATA[
	.st0{fill:#8096B3;}
	.st1{fill-rule:evenodd;clip-rule:evenodd;fill:#AAB9CC;}
	.st2{fill-rule:evenodd;clip-rule:evenodd;fill:#8096B3;}
	.st3{fill:#CFD8E2;}
	.st4{fill-rule:evenodd;clip-rule:evenodd;fill:#CFD8E2;}
]]>
</style>
<g transform="matrix(1,0,0,1,4.08894,-39.959)">
	<g transform="matrix(0.830361,0,0,0.830361,-114.843,138.666)">
		<path class="st1" d="M219,227.1c0.7-20.1,65.1-24.3,113.4-56.7c48.7,36.6,112.7,36.7,113.4,56.7h0v12.2H219L219,227.1L219,227.1z"
			/>
		<g transform="matrix(0.798699,0,0,1,81.6679,203.879)">
			<path class="st0" d="M434.6,25.6H193.2c-1.3,0-2.3-0.8-2.3-1.9c0-1,1-1.9,2.3-1.9h241.4c1.3,0,2.3,0.8,2.3,1.9
				C437,24.8,435.9,25.6,434.6,25.6z"/>
		</g>
	</g>
	<g transform="matrix(0.830361,0,0,0.830361,-118.143,150.557)">
		<path class="st2" d="M307.1,93.6c0,0,6.5,9.7,11.9,26.9c1.8,5.6,3.6,11.6,3.5,17.9c-0.1,6.4-2.1,12.3-3.9,17.9
			c-5.4,17-11.5,26.9-11.5,26.9c0,16.2,58.5,16.2,58.5,0c0,0-6.1-9.9-11.5-26.9c-1.8-5.6-3.8-11.5-3.9-17.9
			c-0.1-6.4,1.7-12.3,3.5-17.9c5.4-17.2,11.9-26.9,11.9-26.9c0-16.2-13.1-29.3-29.3-29.3C320.2,64.3,307.1,77.4,307.1,93.6z"/>
	</g>
	<g>
		<g transform="matrix(0.910401,0,0,0.910401,14.4254,42.5635)">
			<path class="st0" d="M240.5,151.7c-4.4,0-8.2-3.4-8.5-7.9c-0.4-4.7,3.2-8.8,7.9-9.2c38.1-2.9,61.7-22.8,63.1-53.3
				c0.5-9.9-2-17.1-7.4-22.3c-11.7-11.1-34-9.2-34.3-9.2c-4.7,0.5-8.9-2.9-9.4-7.7c-0.5-4.7,2.9-8.9,7.7-9.4
				c1.2-0.1,30.2-2.9,47.8,13.8c9.2,8.7,13.5,20.7,12.7,35.6c-0.9,18.9-8.5,35.4-22,47.6c-13.8,12.6-33.5,20.2-57,21.9
				C241,151.7,240.8,151.7,240.5,151.7z"/>
		</g>
		<g transform="matrix(-0.910401,0,0,0.910401,427.502,42.5635)">
			<path class="st0" d="M382.6,151.7c0.2,0,0.4,0,0.7,0c23.4-1.8,43.1-9.4,56.9-21.9c13.5-12.3,21.1-28.7,22-47.6
				c0.7-14.9-3.6-26.9-12.8-35.6c-17.6-16.6-46.6-13.9-47.8-13.8c-4.7,0.5-8.1,4.7-7.7,9.4c0.5,4.7,4.7,8.1,9.4,7.7l0,0
				c0.2,0,22.5-2,34.3,9.2c5.4,5.2,7.8,12.4,7.4,22.3c-1.4,30.5-25,50.4-63.1,53.3c-4.7,0.4-8.3,4.5-7.9,9.2
				C374.4,148.3,378.1,151.7,382.6,151.7z"/>
		</g>
	</g>
	<g transform="matrix(0.698139,0,0,0.698139,-61.3105,184.406)">
		<path class="st1" d="M171.4-134.8v-54.4c0-7.7,6.3-14,14-14c49.4,0,215.4,0,264.8,0c3.7,0,7.3,1.5,9.9,4.1
			c2.6,2.6,4.1,6.2,4.1,9.9c0,20.2,0,55.1,0,55.1c-0.3,118.7-65.7,215-146.4,215C237,80.9,171.4-15.8,171.4-134.8z"/>
	</g>
	<g transform="matrix(0.698139,0,0,0.698139,-61.0279,174.408)">
		<g transform="matrix(1.0673,0,0,0.796767,-27.3914,25.3546)">
			<path class="st4" d="M469.4-248.6c0-5.4-1.6-10.5-4.4-14.3c-2.8-3.8-6.7-5.9-10.7-5.9c-50.3,0-212.2,0-262.6,0
				c-4,0-7.8,2.1-10.7,5.9c-2.8,3.8-4.4,8.9-4.4,14.3c0,0,0,0,0,0c0,5.4,1.6,10.5,4.4,14.3c2.8,3.8,6.7,5.9,10.7,5.9
				c50.3,0,212.2,0,262.6,0c4,0,7.8-2.1,10.7-5.9C467.8-238.1,469.4-243.3,469.4-248.6C469.4-248.6,469.4-248.6,469.4-248.6z"/>
		</g>
		<g transform="matrix(1.08591,0,0,1,-35.4685,13.0164)">
			<path class="st0" d="M446.3-181.7H204.9c-2,0-3.7-1.8-3.7-4c0-2.2,1.7-4,3.7-4h241.4c2,0,3.7,1.8,3.7,4
				C450-183.5,448.4-181.7,446.3-181.7z"/>
		</g>
	</g>
	<g transform="matrix(0.698139,0,0,0.698139,-61.0279,174.408)">
		<g transform="matrix(0.908634,0,0,0.908634,37.1867,17.0308)">
			<circle class="st4" cx="308.3" cy="-70.3" r="82.3"/>
		</g>
		<g transform="matrix(1.03609,0,0,1.03609,-14.6889,-8.2892)">
			<path class="st0" d="M320.5,47c-46.4,0-84.2-37.8-84.2-84.2s37.8-84.2,84.2-84.2s84.2,37.8,84.2,84.2S366.9,47,320.5,47z
				 M320.5-117.6c-44.4,0-80.4,36.1-80.4,80.4s36.1,80.4,80.4,80.4c44.4,0,80.4-36.1,80.4-80.4S364.8-117.6,320.5-117.6z"/>
		</g>
		<g transform="matrix(65.366,0,0,65.366,387.03,221.199)">
			<path class="st0" d="M-1.2-3.6h0.5c0,0,0.1,0,0.1,0c0,0,0,0,0,0.1c0,0,0,0.1,0,0.1c0,0-0.1,0-0.1,0h-0.7c0,0-0.1,0-0.1,0
				c0,0,0-0.1,0-0.1c0,0,0-0.1,0-0.1c0,0,0-0.1,0.1-0.1c0.1-0.1,0.2-0.2,0.2-0.2C-1.2-4-1.1-4-1.1-4.1C-1-4.1-1-4.1-1-4.2
				c0,0,0.1-0.1,0.1-0.1c0,0,0-0.1,0-0.1c0,0,0-0.1,0-0.1c0,0,0-0.1-0.1-0.1c0,0-0.1,0-0.1,0c-0.1,0-0.1,0-0.2,0.1c0,0,0,0,0,0.1
				c0,0,0,0.1-0.1,0.1c0,0,0,0-0.1,0c0,0-0.1,0-0.1,0c0,0,0-0.1,0-0.1c0,0,0-0.1,0-0.1c0,0,0-0.1,0.1-0.1c0,0,0.1-0.1,0.2-0.1
				c0.1,0,0.1,0,0.2,0c0.1,0,0.2,0,0.2,0c0,0,0.1,0,0.1,0.1c0,0,0.1,0.1,0.1,0.1c0,0,0,0.1,0,0.1c0,0.1,0,0.2-0.1,0.2
				c0,0.1-0.1,0.1-0.1,0.2c0,0-0.1,0.1-0.2,0.2S-1.1-3.7-1.2-3.6C-1.2-3.7-1.2-3.6-1.2-3.6z"/>
		</g>
	</g>
	<g transform="matrix(0.698139,0,0,0.698139,-61.0279,174.408)">
		<path class="st3" d="M216.3-9.4c-2.3,0-4.4-1.3-5.4-3.6c-25.5-60.1-22.9-117-22.8-119.4c0.2-3.2,2.9-5.7,6.2-5.5
			c3.2,0.2,5.7,2.9,5.5,6.2l0,0c0,0.6-2.6,56.7,21.8,114.2c1.3,3-0.1,6.4-3.1,7.7C217.8-9.6,217-9.4,216.3-9.4z"/>
		<path class="st3" d="M242.6,36.9c-1.8,0-3.6-0.8-4.7-2.4c-6.1-8.2-11.8-17.1-16.8-26.4c-1.5-2.8-0.5-6.4,2.3-7.9
			c2.8-1.5,6.4-0.5,7.9,2.3c4.8,8.8,10.1,17.2,15.9,25c1.9,2.6,1.4,6.3-1.2,8.2C245,36.5,243.8,36.9,242.6,36.9z"/>
	</g>
</g>
</svg>
