<?xml version="1.0" encoding="utf-8"?>
<!-- Generator: Adobe Illustrator 16.0.0, SVG Export Plug-In . SVG Version: 6.00 Build 0)  -->
<!DOCTYPE svg PUBLIC "-//W3C//DTD SVG 1.1//EN" "http://www.w3.org/Graphics/SVG/1.1/DTD/svg11.dtd">
<svg version="1.1" id="Layer_1" xmlns="http://www.w3.org/2000/svg" xmlns:xlink="http://www.w3.org/1999/xlink" x="0px" y="0px"
	 width="319.5px" height="300px" viewBox="0 0 319.5 300" style="enable-background:new 0 0 319.5 300;" xml:space="preserve">
<style type="text/css">
<![CDATA[
	.st0{fill-rule:evenodd;clip-rule:evenodd;fill:#DBB2A3;}
	.st1{fill:#BF755A;}
	.st2{fill:#935139;}
	.st3{fill-rule:evenodd;clip-rule:evenodd;fill:#BF755A;}
	.st4{fill-rule:evenodd;clip-rule:evenodd;fill:#935139;}
	.st5{fill:#DBB2A3;}
]]>
</style>
<g transform="matrix(1,0,0,1,353.823,-23.0866)">
	<g transform="matrix(0.830361,0,0,0.830361,-114.843,138.666)">
		<path class="st3" d="M-201,203.7c0.7-19.7,63.9-23.9,111.3-55.7c47.8,35.9,110.6,36,111.3,55.7h0v12H-201L-201,203.7L-201,203.7z"
			/>
		<g transform="matrix(0.798699,0,0,1,81.6679,203.879)">
			<path class="st2" d="M-96.1,2.1H-333c-1.3,0-2.3-0.8-2.3-1.8c0-1,1-1.8,2.3-1.8h236.9c1.3,0,2.3,0.8,2.3,1.8
				C-93.8,1.3-94.8,2.1-96.1,2.1z"/>
		</g>
	</g>
	<g transform="matrix(0.830361,0,0,0.830361,-118.143,150.557)">
		<path class="st4" d="M-114.4,72.4c0,0,6.4,9.5,11.7,26.4c1.7,5.5,3.5,11.3,3.4,17.6c-0.1,6.3-2,12-3.8,17.6
			c-5.3,16.7-11.3,26.4-11.3,26.4c0,15.9,57.4,15.9,57.4,0c0,0-6-9.7-11.3-26.4c-1.8-5.5-3.7-11.3-3.8-17.6
			c-0.1-6.2,1.7-12.1,3.4-17.6C-63.3,81.9-57,72.4-57,72.4c0-15.9-12.9-28.7-28.7-28.7C-101.6,43.7-114.4,56.5-114.4,72.4z"/>
	</g>
	<g>
		<g transform="matrix(0.910401,0,0,0.910401,14.4254,42.5635)">
			<path class="st2" d="M-145.9,133.4c-4.4,0-8-3.4-8.4-7.8c-0.4-4.6,3.1-8.7,7.8-9c37.4-2.8,60.5-22.4,62-52.3
				c0.5-9.6-1.9-16.8-7.2-21.9c-11.6-11-33.5-9-33.7-9c-4.6,0.4-8.7-2.9-9.2-7.5c-0.5-4.6,2.9-8.7,7.5-9.2
				c1.2-0.1,29.7-2.8,46.9,13.5c9,8.5,13.2,20.3,12.5,34.9c-0.9,18.5-8.4,34.7-21.6,46.7c-13.6,12.3-32.9,19.8-55.9,21.5
				C-145.5,133.3-145.7,133.4-145.9,133.4z"/>
		</g>
		<g transform="matrix(-0.910401,0,0,0.910401,427.502,42.5635)">
			<path class="st2" d="M765.9,133.4c0.2,0,0.4,0,0.6,0c23-1.7,42.3-9.2,55.9-21.5c13.3-12,20.7-28.2,21.6-46.7
				c0.7-14.6-3.5-26.4-12.5-34.9c-17.2-16.3-45.7-13.6-46.9-13.5c-4.6,0.5-8,4.6-7.5,9.2c0.5,4.6,4.6,8,9.2,7.5c0.4,0,22.1-2,33.7,9
				c5.3,5.1,7.7,12.2,7.2,21.9c-1.4,29.9-24.6,49.4-62,52.3c-4.6,0.4-8.1,4.4-7.8,9C757.8,130,761.5,133.4,765.9,133.4z"/>
		</g>
	</g>
	<g transform="matrix(0.698139,0,0,0.698139,-61.3105,184.406)">
		<path class="st3" d="M-327.9-156.3v-53.4c0-7.6,6.1-13.7,13.7-13.7c48.5,0,211.3,0,259.8,0c3.6,0,7.1,1.4,9.7,4
			c2.6,2.6,4,6.1,4,9.7c0,19.8,0,54.1,0,54.1c-0.3,116.5-64.5,211-143.6,211C-263.5,55.4-327.9-39.5-327.9-156.3z"/>
	</g>
	<g transform="matrix(0.698139,0,0,0.698139,-61.0279,174.408)">
		<g transform="matrix(1.0673,0,0,0.796767,-27.3914,25.3546)">
			<path class="st0" d="M-3.7-274.4c0-5.3-1.6-10.3-4.3-14c-2.8-3.7-6.5-5.8-10.5-5.8c-49.4,0-208.2,0-257.6,0
				c-3.9,0-7.7,2.1-10.5,5.8c-2.8,3.7-4.3,8.8-4.3,14c0,0,0,0,0,0c0,5.3,1.6,10.3,4.3,14c2.8,3.7,6.5,5.8,10.5,5.8
				c49.4,0,208.2,0,257.6,0c3.9,0,7.7-2.1,10.5-5.8C-5.3-264.1-3.7-269.1-3.7-274.4C-3.7-274.4-3.7-274.4-3.7-274.4z"/>
		</g>
		<g transform="matrix(1.08591,0,0,1,-35.4685,13.0164)">
			<path class="st2" d="M-18.2-202.3h-236.9c-2,0-3.6-1.8-3.6-3.9s1.6-3.9,3.6-3.9h236.9c2,0,3.6,1.8,3.6,3.9
				S-16.2-202.3-18.2-202.3z"/>
		</g>
	</g>
	<g transform="matrix(0.698139,0,0,0.698139,-61.0279,174.408)">
		<g transform="matrix(0.908634,0,0,0.908634,37.1867,17.0308)">
			<circle class="st0" cx="-244.2" cy="-95.4" r="80.8"/>
		</g>
		<g transform="matrix(1.03609,0,0,1.03609,-14.6889,-8.2892)">
			<path class="st2" d="M-164.1,23.4c-45.6,0-82.6-37.1-82.6-82.6c0-45.6,37.1-82.6,82.6-82.6c45.6,0,82.6,37.1,82.6,82.6
				C-81.4-13.7-118.5,23.4-164.1,23.4z M-164.1-138.2c-43.5,0-78.9,35.4-78.9,78.9c0,43.5,35.4,78.9,78.9,78.9
				c43.5,0,78.9-35.4,78.9-78.9C-85.1-102.8-120.5-138.2-164.1-138.2z"/>
		</g>
		<g transform="matrix(64.3624,0,0,64.3624,387.777,220.413)">
			<path class="st1" d="M-8.9-4.7c0.1,0,0.1,0,0.1,0c0,0,0.1-0.1,0.1-0.1c0,0,0-0.1,0-0.1C-8.8-5-8.9-5-8.9-5C-9-5-9-5-9-5
				c0,0,0,0-0.1,0c0,0,0,0,0,0.1c0,0,0,0.1,0,0.1c0,0,0,0,0,0c0,0,0,0-0.1,0c0,0,0,0-0.1,0c0,0,0,0,0-0.1s0-0.1,0-0.1
				c0,0,0-0.1,0.1-0.1c0,0,0.1-0.1,0.1-0.1c0.1,0,0.1,0,0.2,0c0.1,0,0.1,0,0.2,0c0,0,0.1,0,0.1,0.1c0,0,0.1,0.1,0.1,0.1
				c0,0,0,0.1,0,0.1c0,0.1,0,0.1,0,0.2c0,0-0.1,0.1-0.1,0.1c0,0,0.1,0.1,0.1,0.1c0,0,0.1,0.1,0.1,0.1c0,0,0,0.1,0,0.1
				c0,0.1,0,0.1,0,0.2S-8.5-4-8.5-3.9c0,0-0.1,0.1-0.2,0.1c-0.1,0-0.1,0-0.2,0c-0.1,0-0.1,0-0.2,0s-0.1-0.1-0.1-0.1
				c0,0-0.1-0.1-0.1-0.1c0,0,0-0.1,0-0.1c0,0,0-0.1,0-0.1c0,0,0.1,0,0.1,0c0,0,0,0,0,0c0,0,0,0,0,0c0,0.1,0.1,0.2,0.1,0.2
				C-9-4-9-4-8.9-4c0,0,0.1,0,0.1,0c0,0,0.1,0,0.1-0.1c0,0,0-0.1,0-0.1c0-0.1,0-0.1-0.1-0.2c0,0-0.1-0.1-0.2-0.1c0,0,0,0-0.1,0
				c0,0,0,0-0.1,0c0,0-0.1,0-0.1,0c0,0,0,0,0-0.1s0-0.1,0-0.1C-9.1-4.6-9-4.7-8.9-4.7L-8.9-4.7z"/>
		</g>
	</g>
	<g transform="matrix(0.698139,0,0,0.698139,-61.0279,174.408)">
		<path class="st5" d="M-283.9-33c-2.2,0-4.4-1.3-5.3-3.5c-25.1-59-22.4-114.8-22.3-117.2c0.2-3.2,2.9-5.6,6-5.4
			c3.2,0.2,5.6,2.9,5.4,6l0,0c0,0.6-2.6,55.7,21.4,112.1c1.2,2.9-0.1,6.3-3,7.5C-282.3-33.2-283.1-33-283.9-33z"/>
		<path class="st5" d="M-258.1,12.4c-1.8,0-3.5-0.8-4.6-2.3c-6-8.1-11.5-16.8-16.5-25.9c-1.5-2.8-0.5-6.3,2.3-7.8
			c2.8-1.5,6.3-0.5,7.8,2.3c4.7,8.6,10,16.9,15.6,24.5c1.9,2.5,1.4,6.1-1.2,8C-255.7,12-256.9,12.4-258.1,12.4z"/>
	</g>
</g>
</svg>
