<?xml version="1.0" encoding="utf-8"?>
<!-- Generator: Adobe Illustrator 16.0.0, SVG Export Plug-In . SVG Version: 6.00 Build 0)  -->
<!DOCTYPE svg PUBLIC "-//W3C//DTD SVG 1.1//EN" "http://www.w3.org/Graphics/SVG/1.1/DTD/svg11.dtd">
<svg version="1.1" id="Layer_1" xmlns="http://www.w3.org/2000/svg" xmlns:xlink="http://www.w3.org/1999/xlink" x="0px" y="0px"
	 width="59px" height="68px" viewBox="0 0 59 68" style="enable-background:new 0 0 59 68;" xml:space="preserve">
<style type="text/css">
<![CDATA[
	.st0{fill:#98D8F4;}
	.st1{fill:#0D2AFF;}
]]>
</style>
<g>
	<g>
		<path class="st0" d="M44.6,20.9C31.7,33.2,18.8,45.4,5.9,57.7c-1.6,1.5-3.2,3-4.8,4.6c-3.4,3.2,1.7,8.3,5.1,5.1
			C19.1,55.1,32,42.8,44.9,30.5c1.6-1.5,3.2-3,4.8-4.6C53,22.8,48,17.7,44.6,20.9L44.6,20.9z"/>
	</g>
	<g>
		<path class="st1" d="M56.4,46.5C40.1,42,23.8,37.5,7.5,33c-0.3-0.1-0.6-0.2-0.9-0.2c0.5,2,1.1,4,1.6,6c12.1-11,24.2-22,36.3-33
			c0,0,0.1-0.1,0.1-0.1c3.4-3.1-1.7-8.2-5.1-5.1c-12.1,11-24.2,22-36.3,33c0,0-0.1,0.1-0.1,0.1c-2,1.8-0.9,5.3,1.6,6
			c16.3,4.5,32.6,9,48.9,13.6c0.3,0.1,0.6,0.2,0.9,0.2C59,54.7,60.9,47.8,56.4,46.5L56.4,46.5z"/>
	</g>
	<ellipse transform="matrix(0.9558 0.2939 -0.2939 0.9558 13.0456 -13.8797)" class="st0" cx="52.7" cy="36.5" rx="4.7" ry="5.2"/>
	<path class="st0" d="M35.9,62.2c1.7-1.9,1.6-4.7-0.1-6.2c-1.7-1.5-4.5-1.2-6.1,0.7c-0.3,0.4-0.6,0.8-0.8,1.3c-2,1.4-4.8,3-7.2,2.8
		C21.6,60.9,31.6,68.4,35.9,62.2z"/>
</g>
</svg>
